<?xml version="1.0" encoding="utf-8"?>
<!-- Generator: Adobe Illustrator 23.0.6, SVG Export Plug-In . SVG Version: 6.00 Build 0)  -->
<svg version="1.1" id="Layer_1" xmlns="http://www.w3.org/2000/svg" xmlns:xlink="http://www.w3.org/1999/xlink" x="0px" y="0px"
	 viewBox="0 0 16 16" style="enable-background:new 0 0 16 16;" xml:space="preserve">
<style type="text/css">
	.st0{fill:#FFFFFF;}
</style>
<rect x="-1.4" y="-0.7" width="18.4" height="17.4"/>
<g id="XMLID_75_">
	<path id="XMLID_124_" class="st0" d="M4.3,5.5c1.3-0.1,1.6,0.2,1.8,0.2c0,0,0.2-0.3,0.2-0.3s0-0.3-0.2-0.3C5.8,4.9,3.9,5,3.9,5
		c-0.1,0-2,0.2-3.5,1.1c0,0-0.2,0.4,0.2,0.4c0.6,0,2-0.9,3.2-1c0,0,0,0,0,0c0,0-1,1.1-2.9,4.5c0,0.1,0,0.5,0.1,0.6
		c0.4,0.2,0.6-0.2,0.6-0.2C2.8,7.5,4.2,5.5,4.3,5.5z"/>
	<path id="XMLID_125_" class="st0" d="M5.4,6.6c-0.1,0-0.2,0.1-0.2,0.1c-0.1,0-0.1,0.1-0.1,0.2v0l0,0.2c0,0,0,0.1,0.1,0.1
		c0.1,0.1,0.1,0.1,0.2,0.1c0.1,0,0.1,0,0.2-0.1c0.1,0,0.1-0.1,0.1-0.1c0-0.1,0-0.1,0-0.1c0,0,0,0,0,0c0-0.1,0-0.1-0.1-0.2
		C5.5,6.6,5.5,6.6,5.4,6.6z"/>
	<path id="XMLID_138_" class="st0" d="M13.2,7c0,0,1.2-0.4,1.2-0.4c0,0,0-0.2,0-0.2c0-0.1,0-0.1-0.1-0.1h0c0,0-1.2,0.3-1.2,0.3
		c0,0,0.1-0.5,0.1-0.5c0,0-0.1-0.3-0.2-0.3c-0.1,0-0.5,0.7-0.5,0.8c-0.5,0.4-3.2,0.7-3.2,1c0,0.1,0,0.2,0.1,0.2
		c0.5,0.1,2.5-0.4,2.5-0.4c0,0,0.2-0.1,0.2-0.1c0,0.1-0.5,0.6-0.5,0.6c-0.4,0.4-2.4,2.3-2.4,2.3c0,0-0.1-0.7-0.1-1.5
		c0-0.1-0.2-0.2-0.3-0.2c0,0-1.3,0.8-1.3,0.8c0,0-0.1,0.1-0.1,0.1c0,0,0.1-0.6,0-0.8C7.2,8.5,7.1,8.5,6.9,8.5C6.9,8.5,4.8,10,4.6,10
		c0,0,0,0,0,0c0,0,0.1-0.8,0.4-1.3c0,0,0-0.2-0.1-0.2C4.8,8.3,4.7,8.3,4.6,8.3c-0.1,0-1.8,1.3-1.8,1.3l0,0.2c0,0.1,0,0.1,0.1,0.1
		c0,0,1.4-1,1.5-1C4.4,9,4,10.2,4,10.2c-0.2,0.7,0.4,0.5,0.4,0.5s2.3-1.5,2.3-1.6l0,0c0,0-0.6,1.1-0.6,1.4c0,0,0.1,0.2,0.2,0.3
		c0.1,0.1,0.4-0.1,0.4-0.1c0,0,1.6-1.5,1.6-1.5c0,0,0.2,0,0.2,0c0,0,0,0.8,0,0.9c0,0,0.1,0.3,0.1,0.4c0.1,0.6,0.8,0.1,0.9,0
		c0,0,2.1-2.1,2.1-2.1c0,0-0.2,0.7-0.1,2c0,0.2,0.2,0.3,0.3,0.3c0,0,0.2-0.1,0.2-0.2c0,0,0-0.1,0-0.1C11.7,7.9,13.2,7.1,13.2,7z"/>
	<path id="XMLID_141_" class="st0" d="M15.7,9c0,0,0-0.5-0.3-0.7c-0.3-0.1-0.4-0.2-1-0.1c-0.6,0.1-2,1.3-2,1.4
		c0,0.1-0.1,0.3-0.1,0.3c0,0,1-0.7,1-0.7c0,0,0,0,0,0.1L13.3,10c0,0-0.1,1.8,1.6,0.7C15.7,10.1,15.7,9,15.7,9z M15.2,9.3
		c0,0.4-0.7,1-0.7,1c0,0-0.3,0.2-0.6,0s-0.1-1,0.4-1.4l0.3-0.1C15.2,8.8,15.2,9.2,15.2,9.3z"/>
</g>
</svg>
